<mxfile host="app.diagrams.net" modified="2023-01-18T05:05:44.199Z" agent="5.0 (Windows NT 10.0; Win64; x64) AppleWebKit/537.36 (KHTML, like Gecko) Chrome/109.0.0.0 Safari/537.36" version="20.8.5" etag="ruFYSMtho9yjZm3XUpHS" type="github">
  <diagram id="vvq-Ne_W5lKDoaepjMYk" name="第 1 页">
    <mxGraphModel dx="2327" dy="1873" grid="1" gridSize="10" guides="1" tooltips="1" connect="1" arrows="1" fold="1" page="1" pageScale="1" pageWidth="827" pageHeight="1169" math="0" shadow="0">
      <root>
        <mxCell id="0" />
        <mxCell id="1" parent="0" />
        <mxCell id="hD34OMt0N2nuLWVp7UXj-18" value="" style="rounded=0;whiteSpace=wrap;html=1;fontSize=18;fillColor=#f5f5f5;fontColor=#333333;strokeColor=#666666;dashed=1;" vertex="1" parent="1">
          <mxGeometry x="150" y="-510" width="500" height="580" as="geometry" />
        </mxCell>
        <mxCell id="hD34OMt0N2nuLWVp7UXj-2" value="Actor" style="shape=umlActor;verticalLabelPosition=bottom;verticalAlign=top;html=1;outlineConnect=0;" vertex="1" parent="1">
          <mxGeometry x="-90" y="-260" width="30" height="60" as="geometry" />
        </mxCell>
        <mxCell id="hD34OMt0N2nuLWVp7UXj-3" value="" style="rounded=1;whiteSpace=wrap;html=1;strokeWidth=2;fillWeight=4;hachureGap=8;hachureAngle=45;fillColor=#dae8fc;sketch=1;strokeColor=#6c8ebf;" vertex="1" parent="1">
          <mxGeometry x="210" y="-480" width="130" height="110" as="geometry" />
        </mxCell>
        <mxCell id="hD34OMt0N2nuLWVp7UXj-4" value="&lt;font style=&quot;font-size: 18px;&quot;&gt;用户数据库&lt;/font&gt;" style="shape=cylinder3;whiteSpace=wrap;html=1;boundedLbl=1;backgroundOutline=1;size=15;fillColor=#ffe6cc;strokeColor=#d79b00;" vertex="1" parent="1">
          <mxGeometry x="220" y="-440" width="110" height="60" as="geometry" />
        </mxCell>
        <mxCell id="hD34OMt0N2nuLWVp7UXj-5" value="用户服务" style="text;html=1;strokeColor=none;fillColor=none;align=center;verticalAlign=middle;whiteSpace=wrap;rounded=0;fontSize=18;" vertex="1" parent="1">
          <mxGeometry x="210" y="-480" width="135" height="30" as="geometry" />
        </mxCell>
        <mxCell id="hD34OMt0N2nuLWVp7UXj-6" value="" style="rounded=1;whiteSpace=wrap;html=1;strokeWidth=2;fillWeight=4;hachureGap=8;hachureAngle=45;fillColor=#dae8fc;sketch=1;strokeColor=#6c8ebf;" vertex="1" parent="1">
          <mxGeometry x="210" y="-340" width="130" height="110" as="geometry" />
        </mxCell>
        <mxCell id="hD34OMt0N2nuLWVp7UXj-7" value="&lt;font style=&quot;font-size: 18px;&quot;&gt;商品数据库&lt;/font&gt;" style="shape=cylinder3;whiteSpace=wrap;html=1;boundedLbl=1;backgroundOutline=1;size=15;fillColor=#ffe6cc;strokeColor=#d79b00;" vertex="1" parent="1">
          <mxGeometry x="220" y="-300" width="110" height="60" as="geometry" />
        </mxCell>
        <mxCell id="hD34OMt0N2nuLWVp7UXj-8" value="商品服务" style="text;html=1;strokeColor=none;fillColor=none;align=center;verticalAlign=middle;whiteSpace=wrap;rounded=0;fontSize=18;" vertex="1" parent="1">
          <mxGeometry x="210" y="-340" width="135" height="30" as="geometry" />
        </mxCell>
        <mxCell id="hD34OMt0N2nuLWVp7UXj-9" value="" style="rounded=1;whiteSpace=wrap;html=1;strokeWidth=2;fillWeight=4;hachureGap=8;hachureAngle=45;fillColor=#dae8fc;sketch=1;strokeColor=#6c8ebf;" vertex="1" parent="1">
          <mxGeometry x="210" y="-200" width="130" height="110" as="geometry" />
        </mxCell>
        <mxCell id="hD34OMt0N2nuLWVp7UXj-10" value="&lt;font style=&quot;font-size: 18px;&quot;&gt;订单数据库&lt;/font&gt;" style="shape=cylinder3;whiteSpace=wrap;html=1;boundedLbl=1;backgroundOutline=1;size=15;fillColor=#ffe6cc;strokeColor=#d79b00;" vertex="1" parent="1">
          <mxGeometry x="220" y="-160" width="110" height="60" as="geometry" />
        </mxCell>
        <mxCell id="hD34OMt0N2nuLWVp7UXj-11" value="订单服务" style="text;html=1;strokeColor=none;fillColor=none;align=center;verticalAlign=middle;whiteSpace=wrap;rounded=0;fontSize=18;" vertex="1" parent="1">
          <mxGeometry x="210" y="-200" width="135" height="30" as="geometry" />
        </mxCell>
        <mxCell id="hD34OMt0N2nuLWVp7UXj-12" value="" style="rounded=1;whiteSpace=wrap;html=1;strokeWidth=2;fillWeight=4;hachureGap=8;hachureAngle=45;fillColor=#dae8fc;sketch=1;strokeColor=#6c8ebf;" vertex="1" parent="1">
          <mxGeometry x="207.5" y="-60" width="222.5" height="110" as="geometry" />
        </mxCell>
        <mxCell id="hD34OMt0N2nuLWVp7UXj-13" value="&lt;font style=&quot;font-size: 18px;&quot;&gt;数据仓库&lt;/font&gt;" style="shape=cylinder3;whiteSpace=wrap;html=1;boundedLbl=1;backgroundOutline=1;size=15;fillColor=#ffe6cc;strokeColor=#d79b00;" vertex="1" parent="1">
          <mxGeometry x="217.5" y="-20" width="110" height="60" as="geometry" />
        </mxCell>
        <mxCell id="hD34OMt0N2nuLWVp7UXj-14" value="广告服务" style="text;html=1;strokeColor=none;fillColor=none;align=center;verticalAlign=middle;whiteSpace=wrap;rounded=0;fontSize=18;" vertex="1" parent="1">
          <mxGeometry x="207.5" y="-60" width="135" height="30" as="geometry" />
        </mxCell>
        <mxCell id="hD34OMt0N2nuLWVp7UXj-15" value="Redis" style="rounded=1;whiteSpace=wrap;html=1;fontSize=18;fillColor=#f8cecc;strokeColor=#b85450;" vertex="1" parent="1">
          <mxGeometry x="356" y="-10" width="60" height="40" as="geometry" />
        </mxCell>
        <mxCell id="hD34OMt0N2nuLWVp7UXj-16" value="MQ" style="rounded=1;whiteSpace=wrap;html=1;strokeWidth=2;fillWeight=4;hachureGap=8;hachureAngle=45;fillColor=#d5e8d4;sketch=1;fontSize=18;strokeColor=#82b366;" vertex="1" parent="1">
          <mxGeometry x="500" y="-480" width="120" height="530" as="geometry" />
        </mxCell>
        <mxCell id="hD34OMt0N2nuLWVp7UXj-21" value="网关" style="rounded=0;whiteSpace=wrap;html=1;dashed=1;fontSize=18;" vertex="1" parent="1">
          <mxGeometry x="20" y="-450" width="50" height="440" as="geometry" />
        </mxCell>
        <mxCell id="hD34OMt0N2nuLWVp7UXj-22" value="" style="rounded=1;whiteSpace=wrap;html=1;dashed=1;fontSize=18;" vertex="1" parent="1">
          <mxGeometry x="20" y="110" width="630" height="140" as="geometry" />
        </mxCell>
        <mxCell id="hD34OMt0N2nuLWVp7UXj-23" value="服务配置与治理" style="text;html=1;strokeColor=none;fillColor=none;align=center;verticalAlign=middle;whiteSpace=wrap;rounded=0;dashed=1;fontSize=18;" vertex="1" parent="1">
          <mxGeometry x="30" y="170" width="160" height="30" as="geometry" />
        </mxCell>
        <mxCell id="hD34OMt0N2nuLWVp7UXj-24" value="服务配置" style="rounded=1;whiteSpace=wrap;html=1;strokeWidth=2;fillWeight=4;hachureGap=8;hachureAngle=45;fillColor=#cce5ff;sketch=1;dashed=1;fontSize=18;strokeColor=#36393d;" vertex="1" parent="1">
          <mxGeometry x="250" y="155" width="120" height="60" as="geometry" />
        </mxCell>
        <mxCell id="hD34OMt0N2nuLWVp7UXj-25" value="服务治理" style="rounded=1;whiteSpace=wrap;html=1;strokeWidth=2;fillWeight=4;hachureGap=8;hachureAngle=45;fillColor=#cce5ff;sketch=1;dashed=1;fontSize=18;strokeColor=#36393d;" vertex="1" parent="1">
          <mxGeometry x="450" y="155" width="120" height="60" as="geometry" />
        </mxCell>
        <mxCell id="hD34OMt0N2nuLWVp7UXj-30" value="" style="rounded=1;whiteSpace=wrap;html=1;dashed=1;fontSize=18;" vertex="1" parent="1">
          <mxGeometry x="20" y="-680" width="630" height="140" as="geometry" />
        </mxCell>
        <mxCell id="hD34OMt0N2nuLWVp7UXj-31" value="链路追踪和监控" style="text;html=1;strokeColor=none;fillColor=none;align=center;verticalAlign=middle;whiteSpace=wrap;rounded=0;dashed=1;fontSize=18;" vertex="1" parent="1">
          <mxGeometry x="30" y="-620" width="160" height="30" as="geometry" />
        </mxCell>
        <mxCell id="hD34OMt0N2nuLWVp7UXj-32" value="服务监控" style="rounded=1;whiteSpace=wrap;html=1;strokeWidth=2;fillWeight=4;hachureGap=8;hachureAngle=45;fillColor=#cce5ff;sketch=1;dashed=1;fontSize=18;strokeColor=#36393d;" vertex="1" parent="1">
          <mxGeometry x="250" y="-635" width="120" height="60" as="geometry" />
        </mxCell>
        <mxCell id="hD34OMt0N2nuLWVp7UXj-33" value="链路追踪" style="rounded=1;whiteSpace=wrap;html=1;strokeWidth=2;fillWeight=4;hachureGap=8;hachureAngle=45;fillColor=#cce5ff;sketch=1;dashed=1;fontSize=18;strokeColor=#36393d;" vertex="1" parent="1">
          <mxGeometry x="450" y="-635" width="120" height="60" as="geometry" />
        </mxCell>
      </root>
    </mxGraphModel>
  </diagram>
</mxfile>
